<svg xmlns="http://www.w3.org/2000/svg" viewBox="0 0 512 512" fill="#1a1a1a">
  <path d="M384 96h-64V48c0-26.5-21.5-48-48-48h-96c-26.5 0-48 21.5-48 48v48h-64c-35.3 0-64 28.7-64 64v320c0 35.3 28.7 64 64 64h320c35.3 0 64-28.7 64-64V160c0-35.3-28.7-64-64-64zM192 48c0-8.8 7.2-16 16-16h96c8.8 0 16 7.2 16 16v48H192V48zm192 432c0 17.7-14.3 32-32 32H160c-17.7 0-32-14.3-32-32V160c0-17.7 14.3-32 32-32h192c17.7 0 32 14.3 32 32v320z"/>
  <rect x="160" y="240" width="192" height="32" rx="4"/>
  <rect x="160" y="304" width="192" height="32" rx="4"/>
  <rect x="160" y="368" width="128" height="32" rx="4"/>
</svg> 